# xmcd
#
# Track frame offsets:
# 150
# 12733
# 24671
# 38385
# 47795
# 66719
# 76303
# 86245
# 98695
# 110170
# 123440
# 135027
# 150460
#
# Disc length: 2172 seconds
#
# Revision: 0
# Processed by: cddbd v1.5.2PL0 Copyright (c) Steve Scherf et al.
# Submitted via: Axialis_AX_CDPlayer 2.6
#
DISCID=a5087a0d
DTITLE=Tony Bennett - Te best of Tony Bennett [CD1)
DYEAR=1900
DGENRE=
TTITLE0=Rags to riches
TTITLE1=Cold cold heart
TTITLE2=Stranger in paradise
TTITLE3=Chicago
TTITLE4=Give me the simple life
TTITLE5=Taking a chance on love
TTITLE6=You can depend on me
TTITLE7=I'll be seeing you
TTITLE8=Just in time
TTITLE9=It had to be you
TTITLE10=Don't cry, baby
TTITLE11=Lost in the stars
TTITLE12=Please my love
EXTD=
EXTT0=
EXTT1=
EXTT2=
EXTT3=
EXTT4=
EXTT5=
EXTT6=
EXTT7=
EXTT8=
EXTT9=
EXTT10=
EXTT11=
EXTT12=
PLAYORDER=
